<svg width="135" height="73" viewBox="0 0 135 73" fill="none" xmlns="http://www.w3.org/2000/svg">
<path d="M53.1895 8.1709V13.7763L55.5971 11.3665H66.2414V38.2149L63.875 40.579H71.3214L69.1309 38.3907V11.4122H79.7295L82.2696 13.9522V8.1709L81.0886 9.35183H55.0283L53.1895 8.1709Z" fill="white"/>
<path d="M71.671 15.791V18.2442H76.2256V38.4776L74.1676 40.5357H81.3948L78.9415 38.6535V18.2442H83.7589L85.7736 21.0469V15.791H71.671Z" fill="white"/>
<path d="M63.6558 15.791V18.2442H59.1011V38.4776L61.1591 40.5357H53.9342L56.3875 38.6535V18.2442H51.5678L49.5532 21.0469V15.791H63.6558Z" fill="white"/>
<path d="M91.5 0.375H43.5V48.375H91.5V0.375Z" stroke="white" stroke-width="0.75" stroke-miterlimit="10"/>
<path d="M10.478 63.3387L10.0346 63.362C9.97234 62.6775 9.48228 62.1641 8.56439 61.8218C7.87986 61.5729 7.1331 61.4485 6.32411 61.4485V70.3162C6.32411 70.8141 6.37079 71.1486 6.46413 71.3197C6.57303 71.5375 6.84529 71.7086 7.2809 71.8331V72.1365C6.59637 72.1053 5.91184 72.0898 5.22731 72.0898C4.54278 72.0898 3.85825 72.1053 3.17373 72.1365V71.8331C3.60933 71.7086 3.88937 71.5375 4.01383 71.3197C4.09162 71.1486 4.13051 70.8063 4.13051 70.2929V61.4485C3.32152 61.4485 2.57476 61.5729 1.89023 61.8218C0.956785 62.1641 0.466724 62.6775 0.420052 63.362L0 63.3387L0.513397 60.375C1.1357 60.5306 2.31806 60.6084 4.0605 60.6084C7.52982 60.6084 8.5255 60.6161 7.04754 60.6317C8.38548 60.6161 9.35004 60.5306 9.94123 60.375L10.478 63.3387Z" fill="white"/>
<path d="M23.1448 72.1365C22.4603 72.1053 21.7757 72.0898 21.0912 72.0898C20.4067 72.0898 19.7221 72.1053 19.0376 72.1365V71.8331C19.4732 71.7086 19.7533 71.5297 19.8777 71.2963C19.9555 71.1408 19.9944 70.8063 19.9944 70.2929V66.3024C19.5432 66.3024 18.8665 66.2946 17.9641 66.2791C17.0618 66.2791 16.3773 66.2791 15.9106 66.2791C15.086 66.2791 14.4715 66.2946 14.067 66.3257V70.3162C14.067 70.8141 14.1137 71.1563 14.207 71.343C14.3159 71.5297 14.5882 71.6931 15.0238 71.8331V72.1365C14.3393 72.1053 13.6547 72.0898 12.9702 72.0898C12.2857 72.0898 11.6011 72.1053 10.9166 72.1365V71.8331C11.3522 71.7086 11.6323 71.5297 11.7567 71.2963C11.8501 71.1408 11.8967 70.8063 11.8967 70.2929V62.4053C11.8967 61.8919 11.8423 61.5418 11.7334 61.3551C11.6245 61.1529 11.3522 60.9895 10.9166 60.8651V60.5617C11.6011 60.5772 12.2857 60.585 12.9702 60.585C13.6547 60.585 14.3393 60.5772 15.0238 60.5617V60.8651C14.5882 60.9895 14.3159 61.1607 14.207 61.3785C14.1137 61.534 14.067 61.8685 14.067 62.3819L14.0437 65.579C14.3237 65.5945 14.736 65.6023 15.2805 65.6023C17.6452 65.6023 19.2165 65.579 19.9944 65.5323V62.4053C19.9944 61.8919 19.9555 61.5496 19.8777 61.3785C19.7533 61.1607 19.4732 60.9895 19.0376 60.8651V60.5617C19.7221 60.5772 20.4067 60.585 21.0912 60.585C21.7757 60.585 22.4603 60.5772 23.1448 60.5617V60.8651C22.7092 61.0051 22.4369 61.1684 22.328 61.3551C22.2347 61.5418 22.188 61.8841 22.188 62.3819V70.3162C22.188 70.8141 22.2347 71.1563 22.328 71.343C22.4369 71.5297 22.7092 71.6931 23.1448 71.8331V72.1365Z" fill="white"/>
<path d="M33.0125 69.4061L32.2424 72.1831C30.1577 72.1209 28.5942 72.0898 27.5519 72.0898C26.7118 72.0898 25.4516 72.1053 23.7714 72.1365V71.8564C24.207 71.732 24.487 71.553 24.6115 71.3197C24.6893 71.1486 24.7282 70.8063 24.7282 70.2929V62.4286C24.7282 61.8996 24.6893 61.5574 24.6115 61.4018C24.5026 61.1684 24.2303 60.9895 23.7947 60.8651V60.5617C23.9192 60.5617 24.1059 60.5617 24.3548 60.5617C24.6193 60.5772 24.8138 60.585 24.9382 60.585C26.6029 60.6006 29.0065 60.5617 32.1491 60.4683L32.2424 63.012H31.8924C31.6124 62.2652 31.2157 61.7518 30.7023 61.4718C30.2666 61.2384 29.6132 61.1218 28.742 61.1218C27.8552 61.1218 27.3652 61.1451 27.2718 61.1918C27.0385 61.3007 26.9218 61.7363 26.9218 62.4986V65.7423H28.3453C29.0143 65.7423 29.4732 65.649 29.7221 65.4623C29.9866 65.26 30.1733 64.84 30.2822 64.2021L30.6789 64.1788C30.6322 64.8322 30.6089 65.4934 30.6089 66.1624C30.6089 66.7691 30.6322 67.3759 30.6789 67.9826H30.3055C30.1811 67.3447 29.9944 66.9247 29.7455 66.7225C29.4966 66.5202 29.0376 66.4191 28.3686 66.4191H26.9218V70.2696C26.9218 70.8763 27.124 71.2419 27.5285 71.3664C27.6374 71.413 28.1197 71.4364 28.9754 71.4364C30.7489 71.4519 31.978 70.7674 32.6625 69.3828L33.0125 69.4061Z" fill="white"/>
<path d="M49.516 63.3387L49.0726 63.362C49.0104 62.6775 48.5203 62.1641 47.6024 61.8218C46.9179 61.5729 46.1711 61.4485 45.3621 61.4485V70.3162C45.3621 70.8141 45.4088 71.1486 45.5022 71.3197C45.6111 71.5375 45.8833 71.7086 46.3189 71.8331V72.1365C45.6344 72.1053 44.9499 72.0898 44.2653 72.0898C43.5808 72.0898 42.8963 72.1053 42.2117 72.1365V71.8331C42.6474 71.7086 42.9274 71.5375 43.0519 71.3197C43.1296 71.1486 43.1685 70.8063 43.1685 70.2929V61.4485C42.3595 61.4485 41.6128 61.5729 40.9283 61.8218C39.9948 62.1641 39.5048 62.6775 39.4581 63.362L39.038 63.3387L39.5514 60.375C40.1737 60.5306 41.3561 60.6084 43.0985 60.6084C46.5678 60.6084 47.5635 60.6161 46.0856 60.6317C47.4235 60.6161 48.3881 60.5306 48.9793 60.375L49.516 63.3387Z" fill="white"/>
<path d="M59.2658 69.4061L58.4957 72.1831C56.411 72.1209 54.8475 72.0898 53.8051 72.0898C52.965 72.0898 51.7048 72.1053 50.0246 72.1365V71.8564C50.4603 71.732 50.7403 71.553 50.8647 71.3197C50.9425 71.1486 50.9814 70.8063 50.9814 70.2929V62.4286C50.9814 61.8996 50.9425 61.5574 50.8647 61.4018C50.7558 61.1684 50.4836 60.9895 50.048 60.8651V60.5617C50.1724 60.5617 50.3591 60.5617 50.608 60.5617C50.8725 60.5772 51.067 60.585 51.1915 60.585C52.8561 60.6006 55.2597 60.5617 58.4023 60.4683L58.4957 63.012H58.1456C57.8656 62.2652 57.4689 61.7518 56.9555 61.4718C56.5199 61.2384 55.8665 61.1218 54.9953 61.1218C54.1085 61.1218 53.6184 61.1451 53.5251 61.1918C53.2917 61.3007 53.175 61.7363 53.175 62.4986V65.7423H54.5985C55.2675 65.7423 55.7265 65.649 55.9754 65.4623C56.2399 65.26 56.4265 64.84 56.5354 64.2021L56.9322 64.1788C56.8855 64.8322 56.8622 65.4934 56.8622 66.1624C56.8622 66.7691 56.8855 67.3759 56.9322 67.9826H56.5588C56.4343 67.3447 56.2476 66.9247 55.9987 66.7225C55.7498 66.5202 55.2908 66.4191 54.6219 66.4191H53.175V70.2696C53.175 70.8763 53.3773 71.2419 53.7818 71.3664C53.8907 71.413 54.373 71.4364 55.2286 71.4364C57.0022 71.4519 58.2312 70.7674 58.9157 69.3828L59.2658 69.4061Z" fill="white"/>
<path d="M72.5634 60.8651C72.1278 60.9895 71.8556 61.1607 71.7467 61.3785C71.6689 61.534 71.6222 61.8763 71.6066 62.4053C71.4822 67.9282 71.4277 71.1719 71.4433 72.1365H70.3231L62.3188 63.152V70.3162C62.3188 70.8296 62.3577 71.1641 62.4355 71.3197C62.5444 71.5375 62.8167 71.7086 63.2523 71.8331V72.1598C62.1788 72.082 61.2142 72.0742 60.3586 72.1365V71.8564C60.7942 71.7164 61.0664 71.5375 61.1753 71.3197C61.2531 71.1641 61.2998 70.8218 61.3154 70.2929L61.502 62.4053C61.502 62.2186 61.362 61.9541 61.082 61.6118C60.802 61.2696 60.5608 61.0595 60.3586 60.9817C60.2808 60.9506 60.1641 60.9117 60.0085 60.8651V60.5617C60.7397 60.5928 61.2687 60.6084 61.5954 60.6084C61.7821 60.6084 62.0466 60.6006 62.3888 60.585C62.7467 60.5695 63.0111 60.5617 63.1823 60.5617C63.4623 61.0906 64.1702 61.993 65.3059 63.2687L70.5798 69.1728V62.4286C70.5798 61.9152 70.5409 61.5729 70.4632 61.4018C70.3387 61.1684 70.0587 60.9895 69.6231 60.8651V60.585C70.4943 60.6473 71.4744 60.6395 72.5634 60.5617V60.8651Z" fill="white"/>
<path d="M84.826 65.8123C84.826 67.7104 84.2037 69.2505 82.9592 70.4329C81.7146 71.5997 80.1432 72.1831 78.2452 72.1831C77.8874 72.1831 77.3351 72.1676 76.5884 72.1365C75.8572 72.1053 75.3049 72.0898 74.9315 72.0898C74.527 72.0898 73.9203 72.1053 73.1113 72.1365V71.8331C73.5313 71.7086 73.8036 71.5297 73.928 71.2963C74.0214 71.1252 74.0681 70.7907 74.0681 70.2929V62.4053C74.0681 61.8919 74.0292 61.5496 73.9514 61.3785C73.8269 61.1607 73.5547 60.9895 73.1346 60.8651V60.5617C74.0369 60.5928 74.7137 60.6084 75.1648 60.6084C75.5849 60.6084 76.2228 60.5772 77.0784 60.515C77.9496 60.4528 78.6031 60.4217 79.0387 60.4217C80.75 60.4217 82.1424 60.8962 83.2158 61.8452C84.2893 62.7942 84.826 64.1166 84.826 65.8123ZM82.5158 66.1857C82.5158 64.5677 82.0879 63.3309 81.2323 62.4753C80.3766 61.604 79.1398 61.1684 77.5218 61.1684C76.9773 61.1684 76.6117 61.3862 76.425 61.8218C76.3161 62.1019 76.2617 62.5764 76.2617 63.2454V70.5963C76.2617 71.063 76.8373 71.2963 77.9885 71.2963C80.0577 71.2808 81.349 70.9463 81.8623 70.2929C82.298 69.7484 82.5158 68.3793 82.5158 66.1857Z" fill="white"/>
<path d="M95.0222 69.4061L94.2521 72.1831C92.1674 72.1209 90.6038 72.0898 89.5615 72.0898C88.7214 72.0898 87.4612 72.1053 85.781 72.1365V71.8564C86.2166 71.732 86.4967 71.553 86.6211 71.3197C86.6989 71.1486 86.7378 70.8063 86.7378 70.2929V62.4286C86.7378 61.8996 86.6989 61.5574 86.6211 61.4018C86.5122 61.1684 86.24 60.9895 85.8043 60.8651V60.5617C85.9288 60.5617 86.1155 60.5617 86.3644 60.5617C86.6289 60.5772 86.8234 60.585 86.9478 60.585C88.6125 60.6006 91.0161 60.5617 94.1587 60.4683L94.2521 63.012H93.902C93.622 62.2652 93.2253 61.7518 92.7119 61.4718C92.2763 61.2384 91.6228 61.1218 90.7516 61.1218C89.8648 61.1218 89.3748 61.1451 89.2814 61.1918C89.0481 61.3007 88.9314 61.7363 88.9314 62.4986V65.7423H90.3549C91.0239 65.7423 91.4828 65.649 91.7317 65.4623C91.9962 65.26 92.1829 64.84 92.2918 64.2021L92.6885 64.1788C92.6419 64.8322 92.6185 65.4934 92.6185 66.1624C92.6185 66.7691 92.6419 67.3759 92.6885 67.9826H92.3152C92.1907 67.3447 92.004 66.9247 91.7551 66.7225C91.5062 66.5202 91.0472 66.4191 90.3782 66.4191H88.9314V70.2696C88.9314 70.8763 89.1336 71.2419 89.5381 71.3664C89.647 71.413 90.1293 71.4364 90.985 71.4364C92.7585 71.4519 93.9876 70.7674 94.6721 69.3828L95.0222 69.4061Z" fill="white"/>
<path d="M105.916 72.1131L103.839 72.0898C102.361 70.5807 101.023 68.8616 99.8254 66.9325H98.8686V70.3162C98.8686 70.8296 98.9153 71.1641 99.0086 71.3197C99.1175 71.5375 99.3898 71.7086 99.8254 71.8331V72.1365C99.1409 72.1053 98.4563 72.0898 97.7718 72.0898C97.0873 72.0898 96.4028 72.1053 95.7182 72.1365V71.8331C96.1383 71.7086 96.4105 71.5297 96.535 71.2963C96.6283 71.1252 96.675 70.7907 96.675 70.2929V62.4053C96.675 61.9074 96.6283 61.5729 96.535 61.4018C96.4105 61.1684 96.1383 60.9895 95.7182 60.8651V60.5617C96.5272 60.5928 97.1262 60.6084 97.5151 60.6084C97.9196 60.6084 98.5341 60.5928 99.3587 60.5617C100.199 60.5306 100.829 60.515 101.249 60.515C102.245 60.515 103.046 60.7328 103.653 61.1684C104.322 61.6507 104.656 62.3741 104.656 63.3387C104.656 64.8633 103.769 65.9135 101.996 66.4891C102.26 66.8158 102.571 67.2981 102.929 67.9359C103.349 68.6827 103.645 69.1805 103.816 69.4295C104.267 70.0829 104.967 70.9774 105.916 72.1131ZM102.392 63.7588C102.392 63.012 102.175 62.3975 101.739 61.9152C101.303 61.4174 100.72 61.1684 99.9888 61.1684C99.5376 61.1684 99.2264 61.3084 99.0553 61.5885C98.9308 61.8063 98.8686 62.1641 98.8686 62.6619V66.2791C98.9775 66.2791 99.1331 66.2791 99.3353 66.2791C99.5376 66.2946 99.6854 66.3024 99.7787 66.3024C100.883 66.3024 101.591 66.1468 101.902 65.8357C102.229 65.5245 102.392 64.8322 102.392 63.7588Z" fill="white"/>
<path d="M122.1 63.3387L121.656 63.362C121.594 62.6775 121.104 62.1641 120.186 61.8218C119.502 61.5729 118.755 61.4485 117.946 61.4485V70.3162C117.946 70.8141 117.993 71.1486 118.086 71.3197C118.195 71.5375 118.467 71.7086 118.903 71.8331V72.1365C118.218 72.1053 117.534 72.0898 116.849 72.0898C116.165 72.0898 115.48 72.1053 114.796 72.1365V71.8331C115.231 71.7086 115.511 71.5375 115.636 71.3197C115.713 71.1486 115.752 70.8063 115.752 70.2929V61.4485C114.943 61.4485 114.197 61.5729 113.512 61.8218C112.579 62.1641 112.089 62.6775 112.042 63.362L111.622 63.3387L112.135 60.375C112.758 60.5306 113.94 60.6084 115.682 60.6084C119.152 60.6084 120.147 60.6161 118.669 60.6317C120.007 60.6161 120.972 60.5306 121.563 60.375L122.1 63.3387Z" fill="white"/>
<path d="M135 66.2324C135 67.897 134.378 69.305 133.133 70.4562C131.889 71.5919 130.426 72.1598 128.746 72.1598C127.143 72.1598 125.767 71.6231 124.615 70.5496C123.464 69.4761 122.889 68.1382 122.889 66.5358C122.889 64.8867 123.503 63.4787 124.732 62.3119C125.977 61.1451 127.424 60.5617 129.073 60.5617C130.691 60.5617 132.083 61.1062 133.25 62.1952C134.417 63.2842 135 64.63 135 66.2324ZM132.9 68.2393C132.884 66.5902 132.557 65.1123 131.92 63.8054C131.095 62.1563 129.944 61.3318 128.466 61.3318C128.217 61.3318 127.945 61.3707 127.649 61.4485C126.669 61.6974 126.008 62.0008 125.666 62.3586C125.23 62.7942 125.012 63.4865 125.012 64.4355C125.012 66.1002 125.323 67.5859 125.946 68.8927C126.723 70.5574 127.851 71.3897 129.329 71.3897C129.563 71.3897 129.819 71.3586 130.099 71.2963C131.111 71.0785 131.811 70.7752 132.2 70.3862C132.666 69.9351 132.9 69.2194 132.9 68.2393Z" fill="white"/>
</svg>
